<?xml version="1.0" encoding="UTF-8"?>
<svg xmlns="http://www.w3.org/2000/svg" viewBox="0 100 2000 400">
  <defs>
    <linearGradient id="wm" x1="0" y1="0" x2="1" y2="1"><stop offset="0" stop-color="#41b261"></stop><stop offset="1" stop-color="#5dff8a"></stop></linearGradient>
  </defs>
  <path d="M570.03 388.92L570.03 388.92Q541.91 388.92 520.44 376.95Q498.97 364.98 487.00 343.13Q475.03 321.28 475.03 292.02L475.03 292.02L475.03 287.46Q475.03 257.82 486.81 236.16Q498.59 214.50 519.87 202.53Q541.15 190.56 568.89 190.56L568.89 190.56Q596.25 190.56 616.77 202.53Q637.29 214.50 648.69 236.16Q660.09 257.82 660.09 286.70L660.09 286.70L660.09 302.28L519.11 302.28Q519.87 324.32 534.69 337.62Q549.51 350.92 571.17 350.92L571.17 350.92Q592.45 350.92 602.71 341.61Q612.97 332.30 618.29 320.52L618.29 320.52L654.39 339.14Q649.07 349.40 639.00 360.99Q628.93 372.58 612.21 380.75Q595.49 388.92 570.03 388.92ZM519.49 269.22L519.49 269.22L615.63 269.22Q614.11 250.60 601.38 239.58Q588.65 228.56 568.51 228.56L568.51 228.56Q547.61 228.56 535.07 239.58Q522.53 250.60 519.49 269.22Z M739.13 383.60L695.43 383.60L695.43 195.88L738.37 195.88L738.37 222.10L744.83 222.10Q749.77 211.46 762.69 201.96Q775.61 192.46 801.83 192.46L801.83 192.46Q823.49 192.46 840.21 202.34Q856.93 212.22 866.24 229.70Q875.55 247.18 875.55 271.12L875.55 271.12L875.55 383.60L831.85 383.60L831.85 274.54Q831.85 251.74 820.64 240.53Q809.43 229.32 788.91 229.32L788.91 229.32Q765.73 229.32 752.43 244.71Q739.13 260.10 739.13 288.60L739.13 288.60L739.13 383.60Z M1043.13 383.60L991.07 383.60Q972.83 383.60 962.00 372.77Q951.17 361.94 951.17 343.32L951.17 343.32L951.17 231.98L902.15 231.98L902.15 195.88L951.17 195.88L951.17 135.46L994.87 135.46L994.87 195.88L1048.83 195.88L1048.83 231.98L994.87 231.98L994.87 336.10Q994.87 347.50 1005.51 347.50L1005.51 347.50L1043.13 347.50L1043.13 383.60Z M1127.49 383.60L1083.79 383.60L1083.79 195.88L1127.49 195.88L1127.49 383.60ZM1105.45 171.94L1105.45 171.94Q1093.67 171.94 1085.12 164.15Q1076.57 156.36 1076.57 143.44L1076.57 143.44Q1076.57 130.52 1085.12 122.73Q1093.67 114.94 1105.45 114.94L1105.45 114.94Q1117.99 114.94 1126.16 122.73Q1134.33 130.52 1134.33 143.44L1134.33 143.44Q1134.33 156.36 1126.16 164.15Q1117.99 171.94 1105.45 171.94Z M1296.97 383.60L1244.91 383.60Q1226.67 383.60 1215.84 372.77Q1205.01 361.94 1205.01 343.32L1205.01 343.32L1205.01 231.98L1155.99 231.98L1155.99 195.88L1205.01 195.88L1205.01 135.46L1248.71 135.46L1248.71 195.88L1302.67 195.88L1302.67 231.98L1248.71 231.98L1248.71 336.10Q1248.71 347.50 1259.35 347.50L1259.35 347.50L1296.97 347.50L1296.97 383.60Z M1476.33 459.60L1358.53 459.60L1358.53 421.60L1462.27 421.60Q1472.91 421.60 1472.91 410.20L1472.91 410.20L1472.91 357.76L1466.45 357.76Q1463.41 364.60 1456.57 371.25Q1449.73 377.90 1438.33 382.27Q1426.93 386.64 1409.45 386.64L1409.45 386.64Q1387.79 386.64 1371.07 376.95Q1354.35 367.26 1345.23 349.59Q1336.11 331.92 1336.11 308.36L1336.11 308.36L1336.11 195.88L1379.43 195.88L1379.43 304.94Q1379.43 327.74 1390.64 338.76Q1401.85 349.78 1422.37 349.78L1422.37 349.78Q1445.55 349.78 1459.04 334.58Q1472.53 319.38 1472.53 290.88L1472.53 290.88L1472.53 195.88L1515.85 195.88L1515.85 419.32Q1515.85 437.94 1505.21 448.77Q1494.57 459.60 1476.33 459.60L1476.33 459.60Z" fill="url(#wm)"></path>
</svg>
