<?xml version="1.0" encoding="UTF-8"?>
<svg xmlns="http://www.w3.org/2000/svg" viewBox="0 0 2000 600">
  <defs>
    <linearGradient id="wm" x1="0" y1="0" x2="1" y2="1"><stop offset="0" stop-color="#41b261"></stop><stop offset="1" stop-color="#5dff8a"></stop></linearGradient>
  </defs>
  <rect x="0" y="0" width="2000" height="600" fill="#1f0a35"></rect>
  <path d="M570.03 275.32L570.03 275.32Q541.91 275.32 520.44 263.35Q498.97 251.38 487.00 229.53Q475.03 207.68 475.03 178.42L475.03 178.42L475.03 173.86Q475.03 144.22 486.81 122.56Q498.59 100.90 519.87 88.93Q541.15 76.96 568.89 76.96L568.89 76.96Q596.25 76.96 616.77 88.93Q637.29 100.90 648.69 122.56Q660.09 144.22 660.09 173.10L660.09 173.10L660.09 188.68L519.11 188.68Q519.87 210.72 534.69 224.02Q549.51 237.32 571.17 237.32L571.17 237.32Q592.45 237.32 602.71 228.01Q612.97 218.70 618.29 206.92L618.29 206.92L654.39 225.54Q649.07 235.80 639.00 247.39Q628.93 258.98 612.21 267.15Q595.49 275.32 570.03 275.32ZM519.49 155.62L519.49 155.62L615.63 155.62Q614.11 137 601.38 125.98Q588.65 114.96 568.51 114.96L568.51 114.96Q547.61 114.96 535.07 125.98Q522.53 137 519.49 155.62Z M739.13 270L695.43 270L695.43 82.28L738.37 82.28L738.37 108.50L744.83 108.50Q749.77 97.86 762.69 88.36Q775.61 78.86 801.83 78.86L801.83 78.86Q823.49 78.86 840.21 88.74Q856.93 98.62 866.24 116.10Q875.55 133.58 875.55 157.52L875.55 157.52L875.55 270L831.85 270L831.85 160.94Q831.85 138.14 820.64 126.93Q809.43 115.72 788.91 115.72L788.91 115.72Q765.73 115.72 752.43 131.11Q739.13 146.50 739.13 175L739.13 175L739.13 270Z M1043.13 270L991.07 270Q972.83 270 962.00 259.17Q951.17 248.34 951.17 229.72L951.17 229.72L951.17 118.38L902.15 118.38L902.15 82.28L951.17 82.28L951.17 21.86L994.87 21.86L994.87 82.28L1048.83 82.28L1048.83 118.38L994.87 118.38L994.87 222.50Q994.87 233.90 1005.51 233.90L1005.51 233.90L1043.13 233.90L1043.13 270Z M1127.49 270L1083.79 270L1083.79 82.28L1127.49 82.28L1127.49 270ZM1105.45 58.34L1105.45 58.34Q1093.67 58.34 1085.12 50.55Q1076.57 42.76 1076.57 29.84L1076.57 29.84Q1076.57 16.92 1085.12 9.13Q1093.67 1.34 1105.45 1.34L1105.45 1.34Q1117.99 1.34 1126.16 9.13Q1134.33 16.92 1134.33 29.84L1134.33 29.84Q1134.33 42.76 1126.16 50.55Q1117.99 58.34 1105.45 58.34Z M1296.97 270L1244.91 270Q1226.67 270 1215.84 259.17Q1205.01 248.34 1205.01 229.72L1205.01 229.72L1205.01 118.38L1155.99 118.38L1155.99 82.28L1205.01 82.28L1205.01 21.86L1248.71 21.86L1248.71 82.28L1302.67 82.28L1302.67 118.38L1248.71 118.38L1248.71 222.50Q1248.71 233.90 1259.35 233.90L1259.35 233.90L1296.97 233.90L1296.97 270Z M1476.33 346L1358.53 346L1358.53 308L1462.27 308Q1472.91 308 1472.91 296.60L1472.91 296.60L1472.91 244.16L1466.45 244.16Q1463.41 251 1456.57 257.65Q1449.73 264.30 1438.33 268.67Q1426.93 273.04 1409.45 273.04L1409.45 273.04Q1387.79 273.04 1371.07 263.35Q1354.35 253.66 1345.23 235.99Q1336.11 218.32 1336.11 194.76L1336.11 194.76L1336.11 82.28L1379.43 82.28L1379.43 191.34Q1379.43 214.14 1390.64 225.16Q1401.85 236.18 1422.37 236.18L1422.37 236.18Q1445.55 236.18 1459.04 220.98Q1472.53 205.78 1472.53 177.28L1472.53 177.28L1472.53 82.28L1515.85 82.28L1515.85 305.72Q1515.85 324.34 1505.21 335.17Q1494.57 346 1476.33 346L1476.33 346Z" fill="url(#wm)"></path>
  <path d="M725.80 370L719.92 370L719.92 330.80L731.28 330.80L739.85 365.97L740.75 365.97L749.32 330.80L760.68 330.80L760.68 370L754.80 370L754.80 335.06L753.91 335.06L745.40 370L735.20 370L726.69 335.06L725.80 335.06L725.80 370Z M810.64 370L785.66 370L785.66 330.80L810.36 330.80L810.36 336.29L791.71 336.29L791.71 347.54L808.79 347.54L808.79 353.03L791.71 353.03L791.71 364.51L810.64 364.51L810.64 370Z M847.99 370L832.31 370L832.31 364.62L837.57 364.62L837.57 336.18L832.31 336.18L832.31 330.80L847.99 330.80Q855.83 330.80 860.00 334.78Q864.17 338.75 864.17 346.76L864.17 346.76L864.17 354.10Q864.17 362.10 860.00 366.05Q855.83 370 847.99 370L847.99 370ZM843.68 336.34L843.68 364.51L848.04 364.51Q853.14 364.51 855.60 361.94Q858.07 359.36 858.07 354.26L858.07 354.26L858.07 346.54Q858.07 341.38 855.60 338.86Q853.14 336.34 848.04 336.34L848.04 336.34L843.68 336.34Z M893.85 370L887.80 370L887.80 330.80L893.85 330.80L893.85 370Z M922.19 370L915.92 370L927.12 330.80L937.76 330.80L948.90 370L942.68 370L940.11 360.76L924.76 360.76L922.19 370ZM931.99 334.55L926.28 355.16L938.60 355.16L932.88 334.55L931.99 334.55Z  M1015.43 370.78L1015.43 370.78Q1011.00 370.78 1007.59 369.22Q1004.17 367.65 1002.24 364.60Q1000.31 361.54 1000.31 357.18L1000.31 357.18L1000.31 355.78L1006.30 355.78L1006.30 357.18Q1006.30 361.32 1008.79 363.39Q1011.28 365.46 1015.43 365.46L1015.43 365.46Q1019.63 365.46 1021.76 363.70Q1023.88 361.94 1023.88 359.14L1023.88 359.14Q1023.88 357.29 1022.88 356.11Q1021.87 354.94 1020.02 354.24Q1018.17 353.54 1015.60 352.92L1015.60 352.92L1013.52 352.42Q1009.77 351.52 1007 350.20Q1004.23 348.89 1002.72 346.70Q1001.20 344.52 1001.20 341.10L1001.20 341.10Q1001.20 337.63 1002.91 335.17Q1004.62 332.70 1007.64 331.36Q1010.67 330.02 1014.76 330.02L1014.76 330.02Q1018.84 330.02 1022.06 331.42Q1025.28 332.82 1027.13 335.56Q1028.98 338.30 1028.98 342.45L1028.98 342.45L1028.98 344.46L1022.99 344.46L1022.99 342.45Q1022.99 339.93 1021.95 338.36Q1020.92 336.79 1019.07 336.06Q1017.22 335.34 1014.76 335.34L1014.76 335.34Q1011.17 335.34 1009.18 336.82Q1007.20 338.30 1007.20 340.94L1007.20 340.94Q1007.20 342.73 1008.06 343.88Q1008.93 345.02 1010.61 345.75Q1012.29 346.48 1014.81 347.04L1014.81 347.04L1016.88 347.54Q1020.69 348.38 1023.60 349.70Q1026.52 351.02 1028.20 353.26Q1029.88 355.50 1029.88 359.02L1029.88 359.02Q1029.88 362.55 1028.11 365.18Q1026.35 367.82 1023.10 369.30Q1019.85 370.78 1015.43 370.78Z M1077.98 370L1053.00 370L1053.00 330.80L1077.70 330.80L1077.70 336.29L1059.05 336.29L1059.05 347.54L1076.13 347.54L1076.13 353.03L1059.05 353.03L1059.05 364.51L1077.98 364.51L1077.98 370Z M1107.16 370L1101.11 370L1101.11 330.80L1117.57 330.80Q1121.21 330.80 1123.98 332.06Q1126.76 333.32 1128.30 335.67Q1129.84 338.02 1129.84 341.27L1129.84 341.27L1129.84 341.89Q1129.84 345.58 1128.07 347.80Q1126.31 350.01 1123.79 350.90L1123.79 350.90L1123.79 351.80Q1125.92 351.91 1127.20 353.23Q1128.49 354.54 1128.49 357.01L1128.49 357.01L1128.49 370L1122.39 370L1122.39 357.85Q1122.39 356.34 1121.60 355.44Q1120.82 354.54 1119.08 354.54L1119.08 354.54L1107.16 354.54L1107.16 370ZM1107.16 336.29L1107.16 349.06L1116.90 349.06Q1120.15 349.06 1121.94 347.40Q1123.73 345.75 1123.73 342.90L1123.73 342.90L1123.73 342.45Q1123.73 339.59 1121.97 337.94Q1120.20 336.29 1116.90 336.29L1116.90 336.29L1107.16 336.29Z M1171.78 370L1161.31 370L1150.39 330.80L1156.66 330.80L1166.18 366.19L1166.91 366.19L1176.37 330.80L1182.64 330.80L1171.78 370Z M1229.74 370L1204.76 370L1204.76 330.80L1229.46 330.80L1229.46 336.29L1210.81 336.29L1210.81 347.54L1227.89 347.54L1227.89 353.03L1210.81 353.03L1210.81 364.51L1229.74 364.51L1229.74 370Z M1258.92 370L1252.87 370L1252.87 330.80L1269.33 330.80Q1272.97 330.80 1275.74 332.06Q1278.52 333.32 1280.06 335.67Q1281.60 338.02 1281.60 341.27L1281.60 341.27L1281.60 341.89Q1281.60 345.58 1279.83 347.80Q1278.07 350.01 1275.55 350.90L1275.55 350.90L1275.55 351.80Q1277.68 351.91 1278.96 353.23Q1280.25 354.54 1280.25 357.01L1280.25 357.01L1280.25 370L1274.15 370L1274.15 357.85Q1274.15 356.34 1273.36 355.44Q1272.58 354.54 1270.84 354.54L1270.84 354.54L1258.92 354.54L1258.92 370ZM1258.92 336.29L1258.92 349.06L1268.66 349.06Q1271.91 349.06 1273.70 347.40Q1275.49 345.75 1275.49 342.90L1275.49 342.90L1275.49 342.45Q1275.49 339.59 1273.73 337.94Q1271.96 336.29 1268.66 336.29L1268.66 336.29L1258.92 336.29Z" fill="#ff7a2e"></path>
</svg>